# xmcd CD database file
#
# Track frame offsets:
#	150
#	13850
#	26540
#	39372
#	53400
#	66175
#	78855
#	89335
#	100317
#	113102
#	123090
#	132882
#
# Disc length: 1941 seconds
#
# Revision: 0
# Processed by: cddbd v1.5.1PL0 Copyright (c) Steve Scherf et al.
# Submitted via: CDex 1.51
#
DISCID=8c07930c
DTITLE=James Brown - Papa's Got A Brand New Bag - Disc 3
DYEAR=2001
DGENRE=Jazz
TTITLE0=The Bells
TTITLE1=I Don't Mind
TTITLE2=Just You And Me, Darling
TTITLE3=Lost Someone
TTITLE4=I Love You, Yes I Do
TTITLE5=Come Over Here
TTITLE6=Dancin' Little Thing
TTITLE7=And I Do Just What I Want To Do
TTITLE8=So Long (Don't Have To Go)
TTITLE9=Tell Me What You're Gonna Do
TTITLE10=Love Don't Love Knowbody
TTITLE11=You Don't Have To Go
EXTD=YEAR: 2001
EXTT0=
EXTT1=
EXTT2=
EXTT3=
EXTT4=
EXTT5=
EXTT6=
EXTT7=
EXTT8=
EXTT9=
EXTT10=
EXTT11=
PLAYORDER=
